<?xml version="1.0" encoding="iso-8859-1"?>
<!-- Generator: Adobe Illustrator 19.0.0, SVG Export Plug-In . SVG Version: 6.00 Build 0)  -->
<svg xmlns="http://www.w3.org/2000/svg" xmlns:xlink="http://www.w3.org/1999/xlink" version="1.1" id="Capa_1" x="0px" y="0px" viewBox="0 0 491.52 491.52" style="enable-background:new 0 0 491.52 491.52;" xml:space="preserve">
<circle style="fill:#EFC84A;" cx="245.76" cy="245.76" r="245.76"/>
<path style="fill:#3A556A;" d="M364.017,199.234h-17.362h-201.79h-17.396c-3.609,0-6.498,2.777-6.498,6.276v151.293h249.6V205.511  C370.571,202.012,367.627,199.234,364.017,199.234z M355.197,261.058v80.367H136.321v-0.006H136.3V214.62h0.021v-0.022h9.936h144.82  h54.185h9.934V261.058z"/>
<polygon style="fill:#E1E6E9;" points="345.26,214.62 146.259,214.62 136.321,214.62 136.321,341.419 355.186,341.419   355.186,214.62 "/>
<polygon style="fill:#2F4859;" points="291.077,214.598 345.262,214.598 346.655,199.235 144.865,199.235 146.257,214.598 "/>
<rect x="104.96" y="356.762" style="fill:#64798A;" width="281.6" height="23.173"/>
<g>
	<polygon style="fill:#3A556A;" points="120.32,386.56 371.2,386.56 386.56,379.958 104.96,379.958  "/>
	<rect x="218.829" y="365.926" style="fill:#3A556A;" width="53.857" height="4.864"/>
</g>
<g>
	<rect x="136.32" y="214.6" style="fill:#E1E6E9;" width="9.938" height="0.02"/>
	<polygon style="fill:#E1E6E9;" points="355.186,214.62 355.186,341.419 136.321,341.419 136.321,341.425 355.197,341.425    355.197,261.058 355.197,214.598 345.262,214.598 345.26,214.62  "/>
</g>
<polygon style="fill:#D5D6DB;" points="333.789,341.2 345.26,214.62 146.259,214.62 157.731,341.2 "/>
<g>
	<polygon style="fill:#FFFFFF;" points="146.257,214.598 146.259,214.62 345.26,214.62 345.262,214.598 291.077,214.598  "/>
	<rect x="157.732" y="104.96" style="fill:#FFFFFF;" width="176.056" height="236.237"/>
</g>
<rect x="157.732" y="320.563" style="fill:#64798A;" width="176.056" height="20.838"/>
<rect x="157.732" y="139.213" style="fill:#27A2DB;" width="176.056" height="63.821"/>
<rect x="157.732" y="104.96" style="fill:#64798A;" width="176.056" height="21.637"/>
<rect x="165.811" y="110.976" style="fill:#EBF0F3;" width="118.016" height="9.605"/>
<circle style="fill:#E56353;" cx="323.328" cy="115.779" r="4.803"/>
<circle style="fill:#44C4A1;" cx="309.299" cy="115.779" r="4.803"/>
<circle style="fill:#FCD462;" cx="295.224" cy="115.779" r="4.803"/>
<g>
	<circle style="fill:#FFFFFF;" cx="302.797" cy="330.086" r="4.296"/>
	<circle style="fill:#FFFFFF;" cx="318.003" cy="330.086" r="4.301"/>
</g>
<rect x="165.325" y="325.786" style="fill:#3A556A;" width="37.473" height="4.997"/>
<g>
	<rect x="169.421" y="212.628" style="fill:#D5D6DB;" width="40.704" height="40.704"/>
	<rect x="225.434" y="212.628" style="fill:#D5D6DB;" width="40.704" height="40.704"/>
	<rect x="281.4" y="212.628" style="fill:#D5D6DB;" width="40.704" height="40.704"/>
	<rect x="169.421" y="265.349" style="fill:#D5D6DB;" width="40.704" height="5.12"/>
	<rect x="169.421" y="277.914" style="fill:#D5D6DB;" width="40.704" height="5.12"/>
	<rect x="169.421" y="290.524" style="fill:#D5D6DB;" width="40.704" height="5.12"/>
</g>
<rect x="169.421" y="303.104" style="fill:#E56353;" width="22.328" height="5.12"/>
<g>
	<rect x="225.382" y="265.349" style="fill:#D5D6DB;" width="40.704" height="5.12"/>
	<rect x="225.382" y="277.914" style="fill:#D5D6DB;" width="40.704" height="5.12"/>
	<rect x="225.382" y="290.524" style="fill:#D5D6DB;" width="40.704" height="5.12"/>
</g>
<rect x="225.382" y="303.104" style="fill:#E56353;" width="22.328" height="5.12"/>
<g>
	<rect x="281.4" y="265.349" style="fill:#D5D6DB;" width="40.704" height="5.12"/>
	<rect x="281.4" y="277.914" style="fill:#D5D6DB;" width="40.704" height="5.12"/>
	<rect x="281.4" y="290.524" style="fill:#D5D6DB;" width="40.704" height="5.12"/>
</g>
<rect x="281.4" y="303.104" style="fill:#E56353;" width="22.328" height="5.12"/>
<g>
	<path style="fill:#1C75A1;" d="M171.672,176.237c-0.33,0-0.655-0.125-0.905-0.375l-3.84-3.845c-0.5-0.5-0.5-1.31,0-1.81l3.84-3.843   c0.5-0.495,1.31-0.505,1.81,0c0.5,0.5,0.5,1.31,0,1.81l-2.935,2.937l2.935,2.94c0.5,0.5,0.5,1.31,0,1.81   C172.328,176.112,171.998,176.237,171.672,176.237z"/>
	<path style="fill:#1C75A1;" d="M319.847,176.237c0.33,0,0.655-0.125,0.905-0.375l3.84-3.845c0.5-0.5,0.5-1.31,0-1.81l-3.84-3.843   c-0.5-0.495-1.31-0.505-1.81,0c-0.5,0.5-0.5,1.31,0,1.81l2.935,2.937l-2.935,2.94c-0.5,0.5-0.5,1.31,0,1.81   C319.192,176.112,319.522,176.237,319.847,176.237z"/>
</g>
<g>
</g>
<g>
</g>
<g>
</g>
<g>
</g>
<g>
</g>
<g>
</g>
<g>
</g>
<g>
</g>
<g>
</g>
<g>
</g>
<g>
</g>
<g>
</g>
<g>
</g>
<g>
</g>
<g>
</g>
</svg>
