<?xml version="1.0" encoding="iso-8859-1"?>
<!-- Generator: Adobe Illustrator 19.0.0, SVG Export Plug-In . SVG Version: 6.00 Build 0)  -->
<svg xmlns="http://www.w3.org/2000/svg" xmlns:xlink="http://www.w3.org/1999/xlink" version="1.1" id="Capa_1" x="0px" y="0px" viewBox="0 0 491.52 491.52" style="enable-background:new 0 0 491.52 491.52;" xml:space="preserve">
<circle style="fill:#E05B49;" cx="245.76" cy="245.76" r="245.76"/>
<path style="fill:#3A556A;" d="M379.63,161.076h-31.963l-1.326,14.094H371.2v144.965h-38.502H158.801H120.32V175.17h24.838  l-1.328-14.094h-31.94c-3.827,0-6.93,2.846-6.93,6.358v176.464c0,3.512,3.103,6.358,6.93,6.358h267.74  c3.827,0,6.93-2.847,6.93-6.358V167.434C386.56,163.922,383.457,161.076,379.63,161.076z"/>
<polygon style="fill:#EBF0F3;" points="371.2,320.135 371.2,175.17 346.341,175.17 332.698,320.135 "/>
<polygon style="fill:#2F4859;" points="346.341,175.17 347.667,161.076 143.83,161.076 145.158,175.17 "/>
<polygon style="fill:#E1E6E9;" points="158.801,320.135 332.698,320.135 346.341,175.17 145.158,175.17 "/>
<g>
	<rect x="158.822" y="104.96" style="fill:#EBF0F3;" width="173.896" height="215.194"/>
	<polygon style="fill:#EBF0F3;" points="120.32,175.17 120.32,320.135 158.801,320.135 145.158,175.17  "/>
</g>
<path style="fill:#FCD462;" d="M194.482,133.3h-21.959c-0.815,0-1.476,0.736-1.476,1.645v10.883c0,0.908,0.661,1.644,1.476,1.644  h21.959c0.816,0,1.477-0.736,1.477-1.644v-10.883C195.958,134.036,195.297,133.3,194.482,133.3z"/>
<path style="fill:#E56353;" d="M225.605,133.3h-21.959c-0.816,0-1.477,0.736-1.477,1.645v10.883c0,0.908,0.661,1.644,1.477,1.644  h21.959c0.816,0,1.477-0.736,1.477-1.644v-10.883C227.082,134.036,226.421,133.3,225.605,133.3z"/>
<path style="fill:#44C4A1;" d="M256.728,133.3H234.77c-0.816,0-1.478,0.736-1.478,1.645v10.883c0,0.908,0.662,1.644,1.478,1.644  h21.958c0.817,0,1.477-0.736,1.477-1.644v-10.883C258.205,134.036,257.545,133.3,256.728,133.3z"/>
<path style="fill:#27A2DB;" d="M287.852,133.3h-21.958c-0.816,0-1.478,0.736-1.478,1.645v10.883c0,0.908,0.662,1.644,1.478,1.644  h21.958c0.816,0,1.477-0.736,1.477-1.644v-10.883C289.329,134.036,288.667,133.3,287.852,133.3z"/>
<g>
	<path style="fill:#64798A;" d="M318.975,133.3h-21.958c-0.816,0-1.478,0.736-1.478,1.645v10.883c0,0.908,0.662,1.644,1.478,1.644   h21.958c0.816,0,1.477-0.736,1.477-1.644v-10.883C320.452,134.036,319.79,133.3,318.975,133.3z"/>
	<rect x="158.822" y="153.334" style="fill:#64798A;" width="173.906" height="61.645"/>
</g>
<g>
	<polygon style="fill:#EBF0F3;" points="172.29,189.034 167.906,184.154 172.29,179.275 174.099,181.288 171.524,184.154    174.099,187.021  "/>
	<polygon style="fill:#EBF0F3;" points="319.24,189.034 323.623,184.154 319.24,179.275 317.431,181.288 320.007,184.154    317.431,187.021  "/>
</g>
<rect x="171.003" y="220.877" style="fill:#FCD462;" width="43.638" height="44.232"/>
<rect x="223.944" y="220.877" style="fill:#44C4A1;" width="43.638" height="44.232"/>
<rect x="276.89" y="220.877" style="fill:#E56353;" width="43.638" height="44.232"/>
<rect x="171.003" y="259.098" style="fill:#F6C358;" width="43.638" height="6.011"/>
<rect x="223.944" y="259.098" style="fill:#3EA69B;" width="43.638" height="6.011"/>
<rect x="276.89" y="259.098" style="fill:#D15241;" width="43.638" height="6.011"/>
<g>
	<rect x="171.003" y="278.426" style="fill:#E1E6E9;" width="43.638" height="6.011"/>
	<rect x="223.944" y="278.426" style="fill:#E1E6E9;" width="43.638" height="6.011"/>
	<rect x="276.89" y="278.426" style="fill:#E1E6E9;" width="43.638" height="6.011"/>
	<rect x="171.003" y="296.028" style="fill:#E1E6E9;" width="21.745" height="6.011"/>
	<rect x="223.944" y="296.028" style="fill:#E1E6E9;" width="17.362" height="6.011"/>
	<rect x="276.89" y="296.028" style="fill:#E1E6E9;" width="21.745" height="6.011"/>
</g>
<rect x="158.822" y="104.96" style="fill:#64798A;" width="173.896" height="22.784"/>
<rect x="169.114" y="110.566" style="fill:#EBF0F3;" width="101.704" height="11.607"/>
<ellipse style="fill:#FCD462;" cx="282.624" cy="116.516" rx="6.487" ry="5.955"/>
<ellipse style="fill:#44C4A1;" cx="299.264" cy="116.516" rx="6.487" ry="5.955"/>
<ellipse style="fill:#E56353;" cx="315.899" cy="116.516" rx="6.487" ry="5.955"/>
<g>
	<ellipse style="fill:#2F4859;" cx="245.76" cy="334.438" rx="10.752" ry="9.866"/>
	<rect x="191.693" y="350.259" style="fill:#2F4859;" width="108.134" height="20.634"/>
</g>
<polygon style="fill:#64798A;" points="299.825,370.912 191.695,370.912 299.825,350.257 "/>
<path style="fill:#3A556A;" d="M321.895,370.794h-152.27c-2.967,0-5.371,2.206-5.371,4.928v10.837h163.014v-10.837  C327.267,373.001,324.862,370.794,321.895,370.794z"/>
<g>
</g>
<g>
</g>
<g>
</g>
<g>
</g>
<g>
</g>
<g>
</g>
<g>
</g>
<g>
</g>
<g>
</g>
<g>
</g>
<g>
</g>
<g>
</g>
<g>
</g>
<g>
</g>
<g>
</g>
</svg>
