<?xml version="1.0" encoding="iso-8859-1"?>
<!-- Generator: Adobe Illustrator 19.0.0, SVG Export Plug-In . SVG Version: 6.00 Build 0)  -->
<svg xmlns="http://www.w3.org/2000/svg" xmlns:xlink="http://www.w3.org/1999/xlink" version="1.1" id="Capa_1" x="0px" y="0px" viewBox="0 0 491.52 491.52" style="enable-background:new 0 0 491.52 491.52;" xml:space="preserve">
<circle style="fill:#45B39C;" cx="245.76" cy="245.76" r="245.76"/>
<path style="fill:#3A556A;" d="M379.63,145.919H111.89c-3.827,0-6.93,3.103-6.93,6.93v187.212c0,3.828,3.103,6.93,6.93,6.93h267.74  c3.827,0,6.93-3.102,6.93-6.93V152.85C386.56,149.022,383.457,145.919,379.63,145.919z"/>
<rect x="120.32" y="161.28" style="fill:#EBF0F3;" width="250.88" height="152.883"/>
<g>
	<circle style="fill:#2F4859;" cx="245.76" cy="330.65" r="10.752"/>
	<rect x="191.693" y="346.993" style="fill:#2F4859;" width="108.134" height="27.633"/>
</g>
<polygon style="fill:#64798A;" points="299.825,374.625 191.695,374.625 299.825,346.992 "/>
<path style="fill:#3A556A;" d="M321.895,374.497h-152.27c-2.967,0-5.371,2.405-5.371,5.371v6.692h163.014v-6.692  C327.267,376.902,324.862,374.497,321.895,374.497z"/>
<polygon style="fill:#2F4859;" points="342.559,161.281 343.826,145.919 147.693,145.919 148.96,161.281 "/>
<polygon style="fill:#E1E6E9;" points="161.57,314.162 329.95,314.162 342.559,161.281 148.96,161.281 "/>
<rect x="161.567" y="104.96" style="fill:#FFFFFF;" width="168.381" height="209.203"/>
<rect x="161.567" y="104.96" style="fill:#64798A;" width="168.381" height="17.618"/>
<circle style="fill:#FCD462;" cx="288.154" cy="113.766" r="4.434"/>
<circle style="fill:#44C4A1;" cx="302.592" cy="113.766" r="4.434"/>
<circle style="fill:#E56353;" cx="317.041" cy="113.766" r="4.434"/>
<g>
	<rect x="224.051" y="146.207" style="fill:#64798A;" width="90.179" height="5.12"/>
	<rect x="224.051" y="164.096" style="fill:#64798A;" width="90.179" height="5.12"/>
</g>
<path style="fill:#E56353;" d="M186.835,170.442c-0.06,0-0.12-0.003-0.185-0.008c-0.74-0.052-1.42-0.422-1.865-1.015l-8.59-11.45  c-0.845-1.133-0.615-2.738,0.515-3.585c1.13-0.845,2.73-0.623,3.585,0.51l6.82,9.092l18.305-18.26c1-0.995,2.615-1,3.625,0.005  c0.995,1,0.995,2.622-0.005,3.62l-20.395,20.343C188.159,170.174,187.51,170.442,186.835,170.442z"/>
<g>
	<rect x="224.051" y="198.057" style="fill:#64798A;" width="90.179" height="5.12"/>
	<rect x="224.051" y="215.962" style="fill:#64798A;" width="90.179" height="5.12"/>
</g>
<path style="fill:#E56353;" d="M186.835,222.292c-0.06,0-0.12-0.003-0.185-0.008c-0.74-0.052-1.42-0.422-1.865-1.015l-8.59-11.45  c-0.845-1.133-0.615-2.737,0.515-3.585c1.13-0.845,2.73-0.622,3.585,0.51l6.82,9.092l18.305-18.26c1-0.995,2.615-1,3.625,0.005  c0.995,1,0.995,2.622-0.005,3.62l-20.395,20.343C188.159,222.025,187.51,222.292,186.835,222.292z"/>
<g>
	<rect x="224.051" y="249.907" style="fill:#64798A;" width="90.179" height="5.12"/>
	<rect x="224.051" y="267.776" style="fill:#64798A;" width="90.179" height="5.12"/>
</g>
<path style="fill:#E56353;" d="M186.835,274.143c-0.06,0-0.12-0.003-0.185-0.008c-0.74-0.053-1.42-0.422-1.865-1.015l-8.59-11.45  c-0.845-1.133-0.615-2.737,0.515-3.585c1.13-0.845,2.73-0.623,3.585,0.51l6.82,9.093l18.305-18.26c1-0.995,2.615-1,3.625,0.005  c0.995,1,0.995,2.622-0.005,3.62l-20.395,20.343C188.159,273.875,187.51,274.143,186.835,274.143z"/>
<g>
</g>
<g>
</g>
<g>
</g>
<g>
</g>
<g>
</g>
<g>
</g>
<g>
</g>
<g>
</g>
<g>
</g>
<g>
</g>
<g>
</g>
<g>
</g>
<g>
</g>
<g>
</g>
<g>
</g>
</svg>
