<?xml version="1.0" encoding="iso-8859-1"?>
<!-- Generator: Adobe Illustrator 19.0.0, SVG Export Plug-In . SVG Version: 6.00 Build 0)  -->
<svg xmlns="http://www.w3.org/2000/svg" xmlns:xlink="http://www.w3.org/1999/xlink" version="1.1" id="Capa_1" x="0px" y="0px" viewBox="0 0 491.52 491.52" style="enable-background:new 0 0 491.52 491.52;" xml:space="preserve">
<circle style="fill:#45B39C;" cx="245.76" cy="245.76" r="245.76"/>
<path style="fill:#3A556A;" d="M367.345,145.299H124.173c-3.534,0-6.399,2.866-6.399,6.401v171.153h255.972V151.699  C373.746,148.165,370.88,145.299,367.345,145.299z"/>
<rect x="132.751" y="159.017" style="fill:#64798A;" width="226.048" height="150.139"/>
<rect x="104.96" y="322.867" style="fill:#EBF0F3;" width="281.6" height="17.725"/>
<g>
	<polygon style="fill:#D5D6DB;" points="386.165,340.598 105.355,340.598 123.846,346.221 367.674,346.221  "/>
	<rect x="226.765" y="329.626" style="fill:#D5D6DB;" width="37.939" height="4.147"/>
</g>
<path style="fill:#EBF0F3;" d="M104.972,183.869v20.112c0,11.108,9.004,20.112,20.112,20.112c11.107,0,20.112-9.005,20.112-20.112  v-20.112H104.972z"/>
<path style="fill:#D15241;" d="M145.197,183.869v20.112c0,11.108,9.004,20.112,20.111,20.112h0.002  c11.107,0,20.111-9.005,20.111-20.112v-20.112H145.197z"/>
<path style="fill:#EBF0F3;" d="M185.421,183.869v20.112c0,11.108,9.005,20.112,20.113,20.112c11.108,0,20.112-9.005,20.112-20.112  v-20.112H185.421z"/>
<path style="fill:#D15241;" d="M225.646,183.869v20.112c0,11.108,9.005,20.112,20.112,20.112c11.109,0,20.112-9.005,20.112-20.112  v-20.112H225.646z"/>
<path style="fill:#EBF0F3;" d="M265.871,183.869v20.112c0,11.108,9.005,20.112,20.112,20.112c11.109,0,20.113-9.005,20.113-20.112  v-20.112H265.871z"/>
<path style="fill:#D15241;" d="M306.096,183.869v20.112c0,11.108,9.005,20.112,20.112,20.112c11.107,0,20.112-9.005,20.112-20.112  v-20.112H306.096z"/>
<path style="fill:#EBF0F3;" d="M346.321,183.869v20.112c0,11.108,9.005,20.112,20.112,20.112c11.108,0,20.113-9.005,20.113-20.112  v-20.112H346.321z"/>
<polygon style="fill:#FFFFFF;" points="145.197,183.869 174.547,159.004 146.062,159.004 104.972,183.869 "/>
<polygon style="fill:#E56353;" points="185.421,183.869 203.031,159.004 174.547,159.004 145.197,183.869 "/>
<polygon style="fill:#FFFFFF;" points="225.646,183.869 231.516,159.004 203.031,159.004 185.421,183.869 "/>
<polygon style="fill:#E56353;" points="265.871,183.869 260.001,159.004 231.516,159.004 225.646,183.869 "/>
<polygon style="fill:#FFFFFF;" points="306.096,183.869 288.486,159.004 260.001,159.004 265.871,183.869 "/>
<polygon style="fill:#E56353;" points="346.321,183.869 316.971,159.004 288.486,159.004 306.096,183.869 "/>
<g>
	<polygon style="fill:#FFFFFF;" points="386.546,183.869 345.456,159.004 316.971,159.004 346.321,183.869  "/>
	<path style="fill:#FFFFFF;" d="M181.987,283.045h-7.865l-11.305-32.685h7.13l8.11,24.698l8.11-24.698h7.125l8.11,24.698   l8.11-24.698h7.125l-11.305,32.685h-7.86l-7.745-22.365L181.987,283.045z"/>
	<path style="fill:#FFFFFF;" d="M238.022,283.045h-7.865l-11.305-32.685h7.13l8.11,24.698l8.11-24.698h7.125l8.11,24.698   l8.11-24.698h7.125l-11.305,32.685h-7.86l-7.745-22.365L238.022,283.045z"/>
	<path style="fill:#FFFFFF;" d="M294.052,283.045h-7.865l-11.305-32.685h7.13l8.11,24.698l8.11-24.698h7.125l8.109,24.698   l8.11-24.698h7.125l-11.305,32.685h-7.86l-7.745-22.365L294.052,283.045z"/>
</g>
<g>
</g>
<g>
</g>
<g>
</g>
<g>
</g>
<g>
</g>
<g>
</g>
<g>
</g>
<g>
</g>
<g>
</g>
<g>
</g>
<g>
</g>
<g>
</g>
<g>
</g>
<g>
</g>
<g>
</g>
</svg>
